<svg width="1179" height="1207" viewBox="0 0 1179 1207" fill="none" xmlns="http://www.w3.org/2000/svg">
<path d="M318 217C318 217 189 148.5 167.5 147.5C179.5 165.333 211 253 199.5 274.5C158.006 352.075 176 453.333 202.5 475.5C303.5 589.5 455.596 539.346 515 471C561.5 417.5 543.5 316 534 308C502 267.5 527.5 179 540 149.5C516.5 143.5 466 187.5 400.5 217C362 204.5 318 217 318 217Z" fill="#535049" stroke="black"/>
<path d="M251.5 483L81.5 551.5M260.5 505C206.5 525.5 96.8 576.2 90 615M280 519.5C255.333 542.333 204.6 598.8 199 642M257.5 500.5C197.333 545 74.4 644.2 64 685M289.5 519.5C274.833 547.833 246.7 611.2 251.5 638M301.5 519.5C295.667 535.333 285.1 571.4 289.5 589M413.5 519.5C419.5 541.167 431.1 588.6 429.5 605M425 511.5C443.333 536.167 480.7 590.1 483.5 608.5M441.5 505C449.5 514.167 466.2 535.1 469 545.5M447 500.5C483.667 520 559.8 571.6 571 622M447 487C488.333 506 571 547 571 559M447 479C495.167 494.167 597.2 524.6 620 525M257.5 479C219.5 487.5 140 508.6 126 525" stroke="#C7C6C2" stroke-opacity="0.81" stroke-width="0.75" stroke-linecap="round" stroke-linejoin="round"/>
<path d="M353 513C335 513 321.833 525.667 317.5 532C345.9 584.4 376.333 553.833 388 532C383.833 525.667 371 513 353 513Z" fill="#FCFDF8"/>
<path d="M260.5 509C289.3 537.4 326.146 523 351 506.5C413 531.3 432.5 520.5 451 500.5C465 432.5 418.5 441.5 395.5 426.5C363 385.5 378.352 332.822 366 318C358.5 309 347 318 347 318C344 422 317.5 428.5 306 431C293.297 433.762 224.5 473.5 260.5 509Z" fill="#FCFDF8"/>
<path d="M353 513C335 513 321.833 525.667 317.5 532C345.9 584.4 376.333 553.833 388 532C383.833 525.667 371 513 353 513Z" stroke="black"/>
<path d="M260.5 509C289.3 537.4 326.146 523 351 506.5C413 531.3 432.5 520.5 451 500.5C465 432.5 418.5 441.5 395.5 426.5C363 385.5 378.352 332.822 366 318C358.5 309 347 318 347 318C344 422 317.5 428.5 306 431C293.297 433.762 224.5 473.5 260.5 509Z" stroke="black"/>
<path d="M340 470C344.4 470 343.167 479.667 342 484.5C349.6 492.5 358.167 487.833 361.5 484.5C361.333 479.667 361.1 470 361.5 470C362 470 381.5 478.5 380.5 465.5C379.5 452.5 382 451 349 448C316 445 321.5 460 321 465.5C320.5 471 334.5 470 340 470Z" fill="#C9B5B4" stroke="black"/>
<path d="M261 400C239 378.4 254.5 358.667 265 351.5C284.2 352.7 302.667 376.333 309.5 388C302.5 401 283 421.6 261 400Z" fill="#AC9667" stroke="black"/>
<path d="M259.5 376C257.9 394 274.5 400.833 283 402C298.6 402 305.5 378.5 304.5 374C303.5 369.5 278.5 353 274.5 353C270.5 353 261.1 358 259.5 376Z" fill="#1A1921" stroke="black"/>
<path d="M282 370.5C279 369.333 274.8 366.2 282 363C285.5 364.167 290.4 367.3 282 370.5Z" fill="#FFFDFF" stroke="black"/>
<path d="M424.5 412.5C396.9 402.9 398.333 383.5 402.5 375C411.5 362 432.5 357 453 357.5C473.5 358 459 424.5 424.5 412.5Z" fill="#AF9C7C" stroke="black"/>
<path d="M432.5 403C411.7 407.4 406.5 383.833 406.5 371.5C411 364 440.5 351.5 446 355.5C449.333 367.667 453.3 398.6 432.5 403Z" fill="#1A1722" stroke="black"/>
<path d="M425.975 371.5C422.975 370.333 418.775 367.2 425.975 364C429.475 365.167 434.375 368.3 425.975 371.5Z" fill="#FFFDFF" stroke="black"/>
<path d="M167 147.5C229.8 157.1 281.167 260.5 299 311C250.5 252 215.5 275.5 212.5 255.5C210.1 239.5 181.167 176.833 167 147.5Z" fill="#362E2B" stroke="black"/>
<path d="M541 149C479 146.6 441.833 243 431 291.5C469.8 277.1 517.5 297.5 536.5 309.5C505.3 278.3 526.5 189.5 541 149Z" fill="#392E2C" stroke="black"/>
<circle cx="351.5" cy="351.5" r="301.5" stroke="black" stroke-width="100"/>
<line x1="556.284" y1="586.716" x2="731.284" y2="761.716" stroke="black" stroke-width="80"/>
<line x1="708.066" y1="737" x2="1072" y2="1100.93" stroke="black" stroke-width="150" stroke-miterlimit="7.6613" stroke-linecap="round"/>
</svg>
